#!OML:ASF F:\VICON\USERDATA\INSTALL\rory3\rory3.ASF
:FULLY-SPECIFIED
:DEGREES
3863
root -3.06809 14.5364 -14.7268 -564.422 -76.0952 560.235
lowerback 15.1331 0.69627 -2.85944
upperback -0.870467 0.774959 4.89276
thorax -9.6007 0.627964 6.80841
lowerneck -10.7561 -4.85372 -0.949245
upperneck 18.3723 -6.70846 -0.352645
head 7.43367 -3.40744 -0.610301
rclavicle 1.08602e-014 -1.03368e-014
rhumerus -22.163 24.2967 -77.5313
rradius 41.3774
rwrist 31.0614
rhand -18.2755 34.2075
rfingers 7.12502
rthumb 8.00443 4.37911
lclavicle 1.08602e-014 -1.03368e-014
lhumerus 43.0971 -39.9371 52.3773
lradius 77.4673
lwrist 74.5178
lhand 5.84825 24
lfingers 7.12502
lthumb 31.1787 51.3673
rfemur 7.77181 -5.65633 8.41359
rtibia 36.4142
rfoot -31.2482 -7.03903
rtoes -28.7669
lfemur -41.2753 14.3574 -9.59292
ltibia 69.7184
lfoot -17.3466 -7.5244
ltoes 1.44037
3864
root -3.07323 14.532 -14.7339 -564.451 -76.1303 560.402
lowerback 15.0676 0.683578 -2.7938
upperback -0.945493 0.77121 4.85217
thorax -9.64346 0.625505 6.72622
lowerneck -10.8807 -4.84535 -1.09731
upperneck 18.5865 -6.72903 -0.0959691
head 7.54117 -3.40362 -0.514039
rclavicle 9.38792e-015 -3.89618e-014
rhumerus -22.2338 24.1988 -77.6039
rradius 41.3873
rwrist 31.0547
rhand -18.1182 34.3308
rfingers 7.12502
rthumb 8.15626 4.50818
lclavicle 9.38792e-015 -3.89618e-014
lhumerus 42.9399 -39.8601 52.8807
lradius 77.2977
lwrist 74.2041
lhand 6.03236 24.563
lfingers 7.12502
lthumb 31.3542 51.8964
rfemur 7.59398 -5.80113 8.42927
rtibia 36.5957
rfoot -31.3838 -7.12737
rtoes -28.9664
lfemur -41.4466 14.4544 -9.58436
ltibia 69.7179
lfoot -17.4646 -7.36508
ltoes -0.335088
3865
root -3.07719 14.5297 -14.7357 -563.962 -76.2996 559.972
lowerback 15.0782 0.64578 -2.8654
upperback -0.988937 0.70595 4.78662
thorax -9.68815 0.599594 6.71135
lowerneck -10.9612 -4.90961 -1.48559
upperneck 18.7222 -6.82332 0.267209
head 7.62878 -3.44117 -0.348681
rclavicle 1.4182e-014 3.18055e-015
rhumerus -22.2408 24.3024 -77.6177
rradius 41.3837
rwrist 31.0142
rhand -18.1607 34.357
rfingers 7.12502
rthumb 8.11525 4.53278
lclavicle 1.4182e-014 3.18055e-015
lhumerus 42.7688 -39.6783 53.3571
lradius 77.1091
lwrist 73.8288
lhand 6.43692 24.8111
lfingers 7.12502
lthumb 31.7396 52.0689
rfemur 7.57199 -6.03884 8.1931
rtibia 36.636
rfoot -31.5138 -6.87451
rtoes -27.6098
lfemur -41.565 14.3359 -9.80554
ltibia 69.7393
lfoot -17.5221 -7.26028
ltoes -0.848469
3866
root -3.09027 14.5377 -14.7549 -558.455 -77.2332 554.096
lowerback 15.2305 0.695209 -4.58047
upperback -0.938617 0.437421 4.3772
thorax -9.69744 0.557214 7.31925
lowerneck -10.9758 -4.96206 -1.67806
upperneck 18.7508 -6.89888 0.456863
head 7.65597 -3.47261 -0.264883
rclavicle 2.89092e-014 -1.82882e-014
rhumerus -22.2625 24.3146 -77.579
rradius 41.4036
rwrist 30.9956
rhand -18.1929 34.2451
rfingers 7.12502
rthumb 8.08417 4.4197
lclavicle 2.89092e-014 -1.82882e-014
lhumerus 42.8229 -39.8092 52.7398
lradius 77.4344
lwrist 74.1415
lhand 6.30176 24.3968
lfingers 7.12502
lthumb 31.6108 51.68
rfemur 8.05433 -6.4699 6.25203
rtibia 36.6743
rfoot -32.0131 -5.01754
rtoes -22.0215
lfemur -40.9934 13.6608 -11.5437
ltibia 69.3666
lfoot -17.611 -7.86648
ltoes 1.31002
3867
root -3.09579 14.5315 -14.7477 -563.242 -76.5423 559.186
lowerback 15.057 0.624388 -3.05574
upperback -0.957054 0.636467 4.6832
thorax -9.63168 0.572202 6.72114
lowerneck -10.9972 -4.89396 -1.48069
upperneck 18.6672 -6.7988 0.276905
head 7.61706 -3.42691 -0.343777
rclavicle 3.71168e-014 -3.97569e-015
rhumerus -22.2386 24.2957 -77.573
rradius 41.3871
rwrist 31.032
rhand -18.1905 34.2396
rfingers 7.12502
rthumb 8.08649 4.41432
lclavicle 3.71168e-014 -3.97569e-015
lhumerus 42.7517 -39.8792 52.0491
lradius 77.8588
lwrist 74.5559
lhand 6.05961 24.1615
lfingers 7.12502
lthumb 31.3801 51.4898
rfemur 7.82822 -5.90661 7.95532
rtibia 36.5538
rfoot -32.2537 -4.4796
rtoes -18.3161
lfemur -41.422 14.0151 -10.0546
ltibia 69.7046
lfoot -17.711 -8.6625
ltoes 1.90629
3868
root -3.10181 14.5293 -14.7469 -563.638 -76.5981 559.559
lowerback 15.1186 0.602156 -2.81082
upperback -0.959586 0.646584 4.64237
thorax -9.66647 0.563571 6.5318
lowerneck -11.0376 -4.8646 -1.38499
upperneck 18.6462 -6.75398 0.184129
head 7.60995 -3.40654 -0.385429
rclavicle 1.91812e-014 -1.51076e-014
rhumerus -22.257 24.0389 -77.5479
rradius 41.3378
rwrist 31.2044
rhand -18.1904 34.4785
rfingers 7.12502
rthumb 8.08654 4.65323
lclavicle 1.91812e-014 -1.51076e-014
lhumerus 42.8199 -39.9117 52.0323
lradius 77.856
lwrist 74.5255
lhand 5.97097 24.0584
lfingers 7.12502
lthumb 31.2957 51.4031
rfemur 7.96413 -5.79331 8.06517
rtibia 36.4376
rfoot -32.245 -4.56048
rtoes -17.9743
lfemur -41.4283 13.7838 -10.0256
ltibia 69.7528
lfoot -17.6769 -8.61132
ltoes 2.44788
3869
root -3.10687 14.5253 -14.7575 -564.524 -76.6178 560.422
lowerback 15.1748 0.637371 -2.64621
upperback -0.960263 0.727288 4.71953
thorax -9.70948 0.595903 6.50471
lowerneck -11.0235 -4.89041 -1.43384
upperneck 18.6366 -6.76363 0.105663
head 7.60323 -3.42155 -0.403242
rclavicle 1.42597e-014 1.43125e-014
rhumerus -22.338 23.9813 -77.4216
rradius 41.3322
rwrist 31.1198
rhand -18.2685 34.3816
rfingers 7.12502
rthumb 8.0112 4.55344
lclavicle 1.42597e-014 1.43125e-014
lhumerus 43.1103 -40.0341 52.1705
lradius 77.6018
lwrist 74.3111
lhand 5.95356 23.9964
lfingers 7.12502
lthumb 31.2791 51.3444
rfemur 8.16003 -5.77537 8.36133
rtibia 36.2762
rfoot -32.2338 -4.92854
rtoes -18.7506
lfemur -41.4767 13.7572 -9.79374
ltibia 69.929
lfoot -17.9208 -8.42594
ltoes 0.403231
3870
root -3.11422 14.5178 -14.7754 -565.996 -76.5553 561.847
lowerback 15.2043 0.634871 -2.51876
upperback -0.92705 0.754875 4.88651
thorax -9.6951 0.603674 6.6107
lowerneck -11.1718 -4.89231 -1.78214
upperneck 18.8223 -6.75019 0.329207
head 7.71202 -3.4171 -0.281485
rclavicle -1.5221e-014 -7.15625e-015
rhumerus -22.4326 24.1603 -77.3973
rradius 41.3681
rwrist 30.8891
rhand -18.3516 33.9669
rfingers 7.12502
rthumb 7.931 4.13572
lclavicle -1.5221e-014 -7.15625e-015
lhumerus 43.1584 -40.0462 52.1549
lradius 77.5525
lwrist 74.2506
lhand 5.97898 23.9318
lfingers 7.12502
lthumb 31.3033 51.275
rfemur 8.36181 -5.73027 8.83368
rtibia 36.2225
rfoot -32.3657 -4.86382
rtoes -18.572
lfemur -41.4574 13.908 -9.34133
ltibia 70.0389
lfoot -18.0637 -8.40698
ltoes -1.33505
3871
root -3.11954 14.5162 -14.7872 -565.859 -76.5658 561.751
lowerback 15.1707 0.640834 -2.71287
upperback -0.944745 0.734695 4.96864
thorax -9.69799 0.607201 6.8207
lowerneck -11.3033 -4.83811 -1.99014
upperneck 18.9944 -6.64703 0.363501
head 7.80015 -3.37854 -0.233467
rclavicle -6.32819e-014 8.74653e-015
rhumerus -22.4882 24.3532 -77.3668
rradius 41.3961
rwrist 30.6962
rhand -18.6098 33.2084
rfingers 7.12502
rthumb 7.68182 3.36793
lclavicle -6.32819e-014 8.74653e-015
lhumerus 42.9501 -39.962 52.2744
lradius 77.6375
lwrist 74.3072
lhand 5.75237 24.1759
lfingers 7.12502
lthumb 31.0873 51.5607
rfemur 8.33751 -5.61081 8.92994
rtibia 36.2548
rfoot -32.3421 -5.13545
rtoes -19.078
lfemur -41.4825 14.0391 -9.31775
ltibia 70.065
lfoot -18.0453 -8.56083
ltoes -1.02413
